<?xml version="1.0" standalone="no"?>
<!DOCTYPE svg PUBLIC "-//W3C//DTD SVG 20010904//EN"
 "http://www.w3.org/TR/2001/REC-SVG-20010904/DTD/svg10.dtd">
<svg version="1.0" xmlns="http://www.w3.org/2000/svg"
 width="896.000000pt" height="1152.000000pt" viewBox="0 0 896.000000 1152.000000"
 preserveAspectRatio="xMidYMid meet">

<g transform="translate(0.000000,1152.000000) scale(0.100000,-0.100000)"
fill="#000000" stroke="none">
<path d="M0 5760 l0 -5760 4480 0 4480 0 0 5760 0 5760 -4480 0 -4480 0 0
-5760z m5478 2183 l122 -6 0 -69 0 -68 30 0 30 0 0 -105 0 -105 34 0 33 0 7
-61 c3 -34 6 -167 6 -295 l0 -234 -387 -2 c-214 0 -415 -2 -448 -3 l-60 -2 -3
-141 -3 -142 451 0 c303 0 449 -3 445 -10 -4 -6 -3 -34 0 -63 l7 -52 69 1 69
2 0 -31 0 -30 80 7 80 7 1 -768 c1 -422 1 -799 2 -838 0 -38 -1 -112 -1 -162
l-2 -93 -71 0 -70 0 1 -87 c1 -49 2 -116 1 -150 l-1 -63 -80 0 -80 0 0 -140 0
-140 -40 0 -40 0 0 94 c0 107 3 103 -86 98 l-54 -4 0 -54 c0 -53 0 -54 30 -54
28 0 30 -2 30 -40 l0 -40 -70 0 -70 0 0 -35 c0 -35 0 -35 -44 -35 -42 0 -44
-1 -49 -37 -4 -21 -2 -42 5 -50 6 -7 7 -13 4 -13 -12 0 -34 25 -39 46 -2 10
-5 -4 -6 -33 -1 -42 3 -56 22 -73 l22 -21 6 28 c6 24 7 22 8 -14 1 -41 2 -43
34 -45 48 -2 -96 -15 -185 -17 l-78 -1 0 -148 0 -149 -346 -7 c-190 -4 -458
-4 -595 0 l-249 7 -1 81 c-1 66 -5 167 -8 209 -1 4 -66 7 -146 7 l-145 0 0 73
c0 40 5 78 10 83 8 8 8 19 0 38 -5 15 -10 45 -10 67 l0 39 -117 1 c-65 1 -108
4 -95 6 18 4 22 11 22 38 0 34 0 34 -52 37 l-53 3 -3 97 -3 96 -89 4 c-48 1
-91 5 -93 8 -3 3 -7 32 -9 64 -3 60 -18 90 -18 37 0 -29 -2 -31 -40 -31 l-40
0 0 123 c-1 67 -2 181 -3 252 l-2 130 -77 1 c-42 1 -81 5 -87 8 -12 8 -13 700
-2 1176 l6 265 83 3 82 3 0 44 c0 29 -4 45 -12 45 -7 0 -5 5 5 11 9 5 17 17
17 26 0 13 3 14 12 5 15 -15 32 -16 23 -2 -3 6 3 10 14 10 12 0 21 -5 21 -11
0 -6 7 -3 16 5 8 9 20 16 25 16 5 0 9 32 9 70 l0 70 461 0 461 0 -7 138 c-4
75 -9 139 -11 141 -3 3 -182 7 -399 9 l-395 5 0 38 c0 22 5 39 10 39 6 0 11
17 11 38 1 27 3 30 6 12 3 -14 9 -29 14 -34 5 -6 9 38 9 113 0 79 -4 120 -10
116 -5 -3 -10 3 -10 14 0 23 -15 28 -24 9 -3 -7 -3 0 1 15 5 28 5 28 -33 23
-35 -5 -36 -5 -10 4 17 5 110 10 207 10 l178 2 3 56 3 57 78 3 77 3 0 69 0 70
228 2 c125 0 232 2 237 3 6 2 31 3 58 4 l47 1 0 65 0 65 80 0 80 0 0 70 0 69
158 4 c350 6 666 7 780 0z m375 -440 c-13 -2 -33 -2 -45 0 -13 2 -3 4 22 4 25
0 35 -2 23 -4z m174 -290 c-3 -10 -5 -4 -5 12 0 17 2 24 5 18 2 -7 2 -21 0
-30z m0 -130 c-2 -21 -4 -6 -4 32 0 39 2 55 4 38 2 -18 2 -50 0 -70z m-2787
-58 c11 -13 10 -14 -4 -9 -9 3 -16 10 -16 15 0 13 6 11 20 -6z m-30 -130 c0
-14 -4 -25 -9 -25 -4 0 -6 11 -3 25 2 14 6 25 8 25 2 0 4 -11 4 -25z m4440
-330 l0 -145 -75 0 -75 0 0 145 0 145 75 0 75 0 0 -145z m890 70 l0 -75 -141
0 -140 0 5 43 c2 23 5 57 5 75 l1 32 135 0 135 0 0 -75z m-6850 -145 l0 -70
-120 0 -120 0 0 70 0 70 120 0 120 0 0 -70z m338 -2 l3 -68 -76 0 -75 0 0 70
0 71 73 -3 72 -3 3 -67z m432 -212 c0 -97 -3 -135 -12 -138 -7 -3 -13 -20 -13
-39 0 -27 -5 -35 -23 -37 -17 -3 -22 -10 -22 -33 0 -22 -6 -30 -24 -35 -14 -3
-30 -3 -35 1 -12 7 -15 253 -5 354 l7 61 63 0 64 0 0 -134z m4160 107 c0 -16
-5 -35 -10 -43 -7 -11 -10 -4 -10 28 0 23 5 42 10 42 6 0 10 -12 10 -27z m-64
-70 l64 4 0 -88 0 -89 75 0 75 0 0 -140 0 -140 -74 0 c-50 0 -76 4 -79 13 -2
6 -2 69 0 139 l5 127 -72 3 -72 3 -4 60 c-5 61 6 156 14 121 3 -16 11 -18 68
-13z m-3942 -335 c3 -13 6 -114 6 -224 l0 -202 -69 -4 c-39 -2 -72 -6 -74 -8
-2 -3 -7 -65 -11 -137 l-6 -133 80 0 80 0 0 -150 0 -150 -75 0 -75 0 -1 118
c-1 64 -2 131 -3 147 l-1 30 -72 3 -73 3 0 294 0 295 70 0 70 0 0 70 0 70 74
0 c68 0 74 -2 80 -22z m3866 -48 l0 -70 70 0 70 0 0 -295 0 -295 -70 0 -70 0
0 -150 0 -150 -75 0 -75 0 0 220 0 220 75 0 75 0 0 65 0 65 -75 0 -75 0 0 230
0 230 75 0 75 0 0 -70z m-3467 -987 c-7 -2 -19 -2 -25 0 -7 3 -2 5 12 5 14 0
19 -2 13 -5z m-101 -125 c-9 -30 -10 -27 -10 32 0 59 1 62 10 33 8 -23 8 -43
0 -65z m111 -125 c-13 -2 -33 -2 -45 0 -13 2 -3 4 22 4 25 0 35 -2 23 -4z
m-123 -523 l0 -70 80 0 80 0 0 -153 0 -154 35 -1 c44 -2 56 -8 48 -27 -4 -11
2 -15 21 -15 l26 0 0 -410 0 -410 -65 0 -65 0 0 -300 0 -300 150 0 150 0 0
-145 0 -145 150 0 150 0 0 -75 0 -75 145 0 145 0 0 -70 0 -70 445 0 445 0 0
146 0 145 -446 -2 -447 -2 -1 144 -1 144 -147 3 -148 3 0 144 0 145 -145 0
-145 0 0 294 0 294 143 4 c78 2 145 2 150 0 4 -2 7 -66 7 -143 l0 -139 145 0
145 0 0 -149 0 -149 168 -4 c92 -1 291 -1 442 2 l275 5 3 93 3 92 -53 0 c-93
0 -100 -5 -96 -61 l3 -49 -146 0 -147 0 -4 45 c-2 26 1 45 7 46 31 2 -38 18
-81 18 l-52 1 -4 48 c-3 26 -3 51 0 55 2 5 140 8 306 7 165 -1 428 -2 584 -1
l282 1 0 139 0 139 113 7 c61 4 128 5 147 3 l35 -3 3 -142 3 -143 143 0 144 0
7 289 7 288 117 7 c64 3 126 3 139 0 l22 -6 0 146 0 146 -145 0 -145 0 0 113
c0 63 3 161 6 219 6 99 8 104 28 102 12 -1 74 -3 139 -3 l117 -1 0 -65 0 -65
295 0 295 0 0 -150 0 -150 300 0 300 0 0 -149 0 -149 575 5 575 4 2 -1568 3
-1568 23 -10 c23 -10 30 -25 11 -25 -16 0 -79 -62 -79 -77 0 -21 -14 -15 -25
10 l-10 22 -3825 2 c-2104 1 -3968 2 -4142 3 l-318 0 0 1310 0 1310 150 0 150
0 0 70 0 69 147 3 148 3 3 73 3 72 204 0 205 0 0 70 0 70 285 0 285 0 0 75 0
75 145 0 145 0 0 150 0 150 145 0 145 0 0 150 0 150 150 0 150 0 0 70 0 70 70
0 70 0 0 -70z m3090 -80 c0 -5 -4 -10 -10 -10 -5 0 -10 5 -10 10 0 6 5 10 10
10 6 0 10 -4 10 -10z m25 0 c3 -5 1 -10 -4 -10 -6 0 -11 5 -11 10 0 6 2 10 4
10 3 0 8 -4 11 -10z m-58 -42 c-3 -8 -6 -5 -6 6 -1 11 2 17 5 13 3 -3 4 -12 1
-19z m33 13 c0 -6 -4 -13 -10 -16 -5 -3 -10 1 -10 9 0 9 5 16 10 16 6 0 10 -4
10 -9z m30 -118 c0 -48 -3 -83 -6 -80 -10 10 -13 177 -3 171 5 -3 9 -44 9 -91z
m-63 65 c-3 -8 -6 -5 -6 6 -1 11 2 17 5 13 3 -3 4 -12 1 -19z m-557 -169 c0
-6 -4 -7 -10 -4 -5 3 -10 11 -10 16 0 6 5 7 10 4 6 -3 10 -11 10 -16z m529 5
c6 4 11 2 11 -3 0 -6 -6 -12 -12 -12 -7 -1 5 -5 27 -9 l40 -8 -46 1 c-42 1
-46 3 -46 25 0 15 2 20 7 12 4 -7 13 -9 19 -6z m-1235 -419 c-4 -8 -8 -15 -10
-15 -2 0 -4 7 -4 15 0 8 4 15 10 15 5 0 7 -7 4 -15z m33 -9 c-4 -9 1 -17 11
-20 13 -4 13 -4 -2 -3 -19 2 -33 37 -14 37 6 0 8 -6 5 -14z m-317 -56 c0 -5
-2 -10 -4 -10 -3 0 -8 5 -11 10 -3 6 -1 10 4 10 6 0 11 -4 11 -10z m319 -614
c0 -11 -5 -30 -10 -41 l-9 -20 1 20 c1 11 0 22 -1 25 -1 3 -4 18 -6 34 -5 26
-3 28 10 16 9 -7 16 -22 15 -34z m-16 -73 c-7 -2 -21 -2 -30 0 -10 3 -4 5 12
5 17 0 24 -2 18 -5z m67 -7 c0 -8 -4 -17 -9 -21 -12 -7 -24 12 -16 25 9 15 25
12 25 -4z"/>
<path d="M5056 6471 c-4 -6 -14 -8 -24 -5 -9 3 -7 -1 6 -8 12 -8 19 -17 16
-21 -12 -11 -42 -8 -47 6 -3 6 -6 1 -6 -12 l-1 -23 -137 5 c-75 3 -149 3 -165
0 l-28 -5 0 -282 c1 -188 4 -275 10 -264 8 12 17 15 38 9 39 -10 101 -6 115 8
9 9 7 11 -8 9 -11 -2 -21 -1 -22 2 -1 3 -6 17 -12 33 -9 23 -7 31 11 49 l22
22 7 -24 c4 -14 7 15 8 68 l1 92 -40 1 c-50 2 -57 3 -63 9 -3 3 -7 39 -8 80
l-2 75 56 3 57 4 0 -81 0 -81 40 0 40 0 0 40 0 40 40 0 40 0 0 45 0 46 68 -3
67 -3 0 -83 0 -82 181 0 181 0 7 40 6 40 70 0 70 0 0 -40 0 -40 53 -1 c114 -3
167 -3 171 2 3 2 6 44 8 92 2 63 0 88 -9 92 -7 2 -13 1 -13 -3 0 -4 -47 -8
-105 -10 l-105 -3 0 56 0 55 -237 0 c-250 0 -343 6 -343 23 0 5 13 7 30 5 18
-3 31 0 34 9 4 10 -1 12 -19 7 -14 -3 -32 -1 -39 5 -9 8 -16 8 -20 2z m-185
-116 c7 18 8 17 8 -7 1 -14 7 -29 14 -31 6 -3 0 -6 -15 -6 -25 -1 -28 2 -27
32 1 22 3 26 7 12 l5 -20 8 20z m447 -77 c-3 -43 -3 -43 -43 -43 -40 0 -40 0
-43 43 l-3 42 46 0 46 0 -3 -42z"/>
<path d="M3143 6413 l-83 -4 0 -129 c0 -71 3 -131 8 -133 4 -3 53 -8 110 -12
l102 -7 0 46 c0 46 0 46 35 46 33 0 40 7 36 38 -1 7 6 15 15 19 16 6 16 7 -2
14 -13 5 -4 8 29 8 40 1 47 -2 47 -18 0 -11 -4 -21 -9 -23 -5 -1 -3 -9 5 -16
12 -11 14 -7 14 28 0 39 1 40 35 40 l35 0 0 -85 0 -85 168 0 167 0 0 82 0 83
48 3 47 3 0 -45 0 -46 45 0 45 0 0 -40 c0 -39 1 -40 35 -40 l35 0 0 68 c0 77
-5 86 -42 96 -26 6 -28 10 -28 55 l0 48 -67 6 c-67 7 -670 6 -830 0z m577
-133 l0 -50 -50 0 -50 0 0 43 c0 24 2 46 4 48 2 2 25 5 50 7 l46 3 0 -51z"/>
<path d="M4159 6413 c-22 -3 -28 -11 -34 -39 -11 -62 -2 -73 68 -76 52 -3 62
-6 61 -20 0 -10 -1 -74 -2 -143 l-2 -125 -70 0 -70 0 0 -230 0 -230 71 0 71 0
-2 53 c-2 28 -2 100 -1 160 l1 107 45 0 45 0 -2 268 -3 267 -52 1 c-28 1 -62
4 -75 6 -13 2 -35 3 -49 1z m68 -795 c-3 -8 -6 -5 -6 6 -1 11 2 17 5 13 3 -3
4 -12 1 -19z"/>
<path d="M5858 6403 c7 -3 16 -2 19 1 4 3 -2 6 -13 5 -11 0 -14 -3 -6 -6z"/>
<path d="M3390 6281 c0 -17 15 -19 28 -5 11 12 9 14 -8 14 -11 0 -20 -4 -20
-9z"/>
<path d="M4845 5848 c-3 -7 -6 -77 -7 -156 l-3 -143 80 3 80 3 3 153 3 152
-76 0 c-51 0 -77 -4 -80 -12z"/>
<path d="M4677 5763 c-4 -3 -7 -27 -7 -51 0 -58 12 -47 14 13 0 25 1 45 0 45
0 0 -4 -3 -7 -7z"/>
<path d="M4720 5605 c0 -55 0 -55 31 -55 17 0 28 4 24 10 -3 6 -1 10 6 10 7 0
1 9 -12 21 -16 13 -23 29 -21 45 2 16 -1 24 -12 24 -13 0 -16 -12 -16 -55z"/>
<path d="M3950 5445 l0 -95 -45 0 c-45 0 -45 0 -45 -35 0 -35 0 -35 45 -35
l45 0 0 -45 0 -45 139 6 c77 4 148 3 158 -1 10 -4 33 -7 51 -6 30 2 32 0 30
-26 -4 -55 -1 -56 179 -48 177 8 183 7 183 -42 0 -21 -5 -23 -45 -23 -45 0
-45 0 -45 -34 0 -32 -3 -35 -32 -38 -18 -2 -32 -6 -30 -10 1 -5 2 -28 2 -53
l0 -44 112 -3 c110 -3 112 -3 118 -28 14 -56 5 -62 -86 -58 -46 2 -84 0 -84
-4 0 -5 -65 -8 -145 -8 -90 0 -145 4 -145 10 0 6 -13 10 -30 10 -28 0 -30 2
-30 40 l0 40 115 0 115 0 0 90 c0 65 -3 90 -12 91 -166 8 -204 12 -210 22 -4
7 -3 16 2 21 4 4 6 14 3 22 -3 9 3 12 21 11 14 -1 25 3 25 8 1 6 -7 10 -16 10
-10 0 -21 7 -25 15 -5 11 -7 9 -7 -7 -1 -22 -3 -23 -158 -25 l-158 -3 0 -32 0
-33 -72 0 -72 0 -3 -42 -3 -43 -50 0 -50 0 1 38 c1 29 -2 37 -17 37 -13 0 -19
-9 -21 -37 l-3 -38 -67 -3 c-53 -2 -68 -6 -68 -18 0 -14 -2 -13 -16 1 -21 21
-44 3 -44 -34 0 -14 -2 -52 -6 -83 -6 -55 -8 -58 -34 -58 -51 0 -60 -9 -60
-56 l0 -44 53 -2 c28 -1 94 0 145 1 l92 3 0 -45 c0 -42 2 -46 28 -49 21 -2 28
-9 30 -30 3 -26 6 -27 65 -30 62 -3 62 -3 65 -35 3 -33 4 -33 58 -33 l54 0 0
-105 0 -105 55 0 c71 0 95 21 95 85 l0 45 375 0 c293 0 375 -3 376 -12 1 -7 0
-25 -1 -40 -1 -18 4 -28 12 -28 10 0 9 -3 -2 -10 -12 -8 -11 -10 8 -10 12 0
22 -5 22 -11 0 -5 -4 -7 -10 -4 -5 3 -10 1 -10 -4 0 -7 24 -11 60 -11 l60 0 1
50 c2 63 2 67 12 76 4 4 7 25 7 46 l0 38 65 0 65 0 0 35 c0 34 1 35 40 35 36
0 40 3 40 25 0 23 4 25 40 25 33 0 40 4 41 20 1 11 3 25 4 30 1 6 3 20 4 31 1
21 3 21 125 14 161 -9 166 -7 166 56 0 37 -4 49 -15 49 -8 0 -14 3 -13 8 1 4
-1 22 -5 41 -5 23 -11 31 -21 28 -8 -3 -17 1 -20 9 -3 9 -20 14 -46 14 l-40 0
0 45 0 44 -67 3 -68 3 2 38 3 37 -75 0 c-65 0 -75 -2 -75 -17 0 -23 11 -38 30
-46 8 -3 2 -6 -14 -6 -16 -1 -27 1 -25 4 3 2 0 35 -6 72 l-11 68 -60 1 c-143
3 -207 7 -186 11 30 6 28 23 -2 23 -13 0 -31 3 -40 6 -30 12 -4 24 50 24 34 0
53 -4 49 -10 -3 -5 -1 -10 5 -10 6 0 8 -4 5 -10 -3 -5 -1 -10 4 -10 6 0 11 5
11 10 0 6 5 10 11 10 5 0 8 -4 4 -9 -3 -5 -1 -12 4 -16 6 -3 13 24 17 63 l6
69 56 2 c31 1 57 3 58 4 4 4 7 96 5 175 l-1 82 -65 0 -65 0 0 -99 0 -98 -57
-1 c-102 0 -101 1 -95 -27 3 -18 11 -26 31 -27 14 -1 -30 -5 -99 -8 l-125 -5
0 -38 0 -37 -127 0 -128 0 0 34 c0 32 -2 34 -46 40 -26 3 -89 6 -140 6 -51 0
-96 4 -99 10 -3 6 3 10 14 10 11 0 23 5 26 10 3 6 12 10 18 10 7 0 6 -4 -3
-10 -13 -8 -12 -10 3 -10 9 0 17 5 17 10 0 6 7 10 16 10 8 0 13 4 9 9 -3 5 5
12 17 14 13 2 -16 5 -64 6 -56 1 -88 -3 -88 -10 0 -5 -5 -7 -10 -4 -7 4 -9 -3
-6 -18 4 -21 0 -26 -25 -29 l-29 -5 0 104 0 103 45 0 c41 0 45 2 45 25 0 24
-2 25 -75 25 l-75 0 0 -95z m357 -311 c-3 -3 -12 -4 -19 -1 -8 3 -5 6 6 6 11
1 17 -2 13 -5z m973 -109 c-9 -11 -22 -14 -44 -9 -55 11 -53 24 3 24 47 0 52
-2 41 -15z m7 -41 c-3 -3 -12 -4 -19 -1 -8 3 -5 6 6 6 11 1 17 -2 13 -5z
m-1219 -124 c31 0 32 -1 32 -41 0 -34 -3 -40 -16 -35 -9 4 -23 1 -30 -5 -18
-15 -173 -7 -183 9 -4 7 -5 28 -3 48 l4 36 82 -6 c44 -3 96 -6 114 -6z m936
-22 c5 -25 10 -28 46 -28 22 0 40 -5 40 -11 0 -6 -9 -8 -20 -4 -14 4 -20 2
-20 -8 0 -9 -11 -14 -30 -14 -16 0 -27 4 -24 8 2 4 0 10 -6 14 -5 3 -10 -1
-10 -9 0 -12 -13 -15 -67 -13 l-68 2 -3 33 c-6 59 0 63 82 60 72 -3 74 -4 80
-30z m-1230 -90 c16 -62 11 -67 -59 -67 l-65 1 0 44 0 44 59 0 c52 0 59 -2 65
-22z m1486 13 l50 -1 0 -34 c0 -33 -2 -35 -42 -40 -24 -3 -60 -4 -80 -3 -34 2
-39 5 -44 34 -8 41 -2 48 35 47 17 -1 54 -2 81 -3z m-120 -157 l0 -76 -144 7
-145 8 -3 -34 -3 -34 -75 -6 c-104 -9 -423 -10 -555 -3 l-110 7 0 31 0 31
-137 -3 -138 -2 0 75 0 75 655 0 655 0 0 -76z m-264 -279 c1 -8 -2 -15 -7 -15
-5 0 -9 10 -9 22 0 23 12 17 16 -7z m74 -30 c0 -1 -9 -5 -20 -8 -12 -3 -20 0
-20 8 0 8 8 11 20 8 11 -3 20 -7 20 -8z m25 -26 c-7 -11 -35 -12 -35 -1 0 4 9
8 20 9 11 1 18 -2 15 -8z"/>
<path d="M5500 4930 c0 -5 5 -10 10 -10 6 0 10 5 10 10 0 6 -4 10 -10 10 -5 0
-10 -4 -10 -10z"/>
<path d="M5483 4903 c9 -2 23 -2 30 0 6 3 -1 5 -18 5 -16 0 -22 -2 -12 -5z"/>
<path d="M3461 4633 c0 -25 1 -26 9 -8 12 27 12 35 0 35 -5 0 -10 -12 -9 -27z"/>
<path d="M4630 4230 c-52 -4 -75 -7 -50 -8 33 -2 41 -5 30 -12 -13 -9 -13 -10
0 -11 8 -1 -3 -5 -25 -9 l-40 -7 40 -3 40 -3 -35 -7 -35 -7 32 -2 c28 -1 60
-21 34 -21 -6 0 -11 -5 -11 -11 0 -6 9 -9 20 -6 11 3 18 1 15 -3 -3 -5 1 -11
7 -13 7 -3 -27 -6 -75 -6 -82 -1 -87 0 -78 17 9 17 5 19 -47 19 -49 1 -52 0
-22 -7 l35 -7 -35 -2 c-27 -1 -31 -4 -20 -11 11 -7 4 -9 -25 -8 -22 0 -30 3
-18 5 28 5 19 33 -11 33 -16 0 -18 2 -7 9 8 5 19 7 26 5 6 -3 22 0 36 6 l24
10 -25 -1 c-77 -3 -83 -1 -76 31 l6 30 -94 0 c-115 0 -136 -13 -136 -84 l0
-46 70 0 70 0 0 -70 0 -70 45 0 c44 0 45 0 45 -34 l0 -33 68 -7 c38 -4 99 -4
135 0 l67 7 0 33 c0 32 2 34 35 34 l35 0 0 80 c0 54 -4 80 -12 80 -6 0 -8 3
-4 7 4 5 13 1 19 -7 8 -10 31 -15 74 -15 33 0 56 3 50 7 -7 5 -8 8 -1 8 5 0
15 -5 22 -12 9 -9 12 3 11 58 -1 38 -4 56 -6 41 -4 -23 -8 -27 -26 -21 -30 9
-34 14 -17 24 36 22 -14 28 -160 20z m184 -65 c20 -15 20 -15 0 -15 -16 0 -17
-2 -4 -11 11 -8 9 -9 -10 -4 -37 11 -48 25 -19 26 22 0 22 1 4 9 -13 6 -15 9
-5 9 8 0 24 -6 34 -14z m-147 -21 c-3 -3 -12 -4 -19 -1 -8 3 -5 6 6 6 11 1 17
-2 13 -5z m-7 -160 c0 -2 -7 -4 -15 -4 -8 0 -15 4 -15 10 0 5 7 7 15 4 8 -4
15 -8 15 -10z"/>
<path d="M4528 4133 c7 -3 16 -2 19 1 4 3 -2 6 -13 5 -11 0 -14 -3 -6 -6z"/>
<path d="M4545 4120 c-16 -7 -17 -9 -3 -9 9 -1 20 4 23 9 7 11 7 11 -20 0z"/>
<path d="M6332 3970 c0 -14 2 -19 5 -12 2 6 2 18 0 25 -3 6 -5 1 -5 -13z"/>
<path d="M2472 3438 l2 -63 3 57 c4 53 6 57 31 61 25 4 24 4 -5 6 l-33 1 2
-62z"/>
<path d="M2472 3335 c0 -16 2 -22 5 -12 2 9 2 23 0 30 -3 6 -5 -1 -5 -18z"/>
<path d="M2470 3264 c0 -18 4 -20 28 -16 22 5 24 7 7 10 -11 2 -23 9 -27 16
-5 6 -8 3 -8 -10z"/>
<path d="M2475 3231 c-4 -7 11 -11 44 -11 l51 0 0 -145 c0 -117 3 -145 14
-145 10 0 14 18 15 73 0 39 4 105 7 146 5 55 3 72 -5 66 -7 -3 -17 -2 -24 3
-19 16 -94 25 -102 13z"/>
<path d="M2638 3223 c12 -2 30 -2 40 0 9 3 -1 5 -23 4 -22 0 -30 -2 -17 -4z"/>
<path d="M7451 3184 c0 -11 3 -14 6 -6 3 7 2 16 -1 19 -3 4 -6 -2 -5 -13z"/>
<path d="M5532 2922 l-93 -3 2 -144 1 -145 144 0 144 0 0 148 0 148 -52 0
c-29 0 -95 -2 -146 -4z"/>
<path d="M8390 2870 l0 -50 48 2 47 1 -41 4 c-40 4 -41 5 -40 40 l1 36 95 4
c52 2 97 6 99 9 2 2 -44 4 -102 4 l-107 0 0 -50z"/>
<path d="M4842 2890 c0 -14 2 -19 5 -12 2 6 2 18 0 25 -3 6 -5 1 -5 -13z"/>
<path d="M5140 2480 l0 -140 150 0 150 0 0 140 0 140 -150 0 -150 0 0 -140z"/>
<path d="M4847 2323 c-2 -5 -4 -30 -3 -58 1 -27 3 -89 4 -137 l2 -86 140 -1
140 -2 0 146 0 145 -139 0 c-77 0 -142 -3 -144 -7z"/>
<path d="M2712 1857 c-17 -48 -16 -97 3 -97 8 0 15 9 15 19 0 11 4 22 9 25 5
3 11 24 13 46 5 51 -22 56 -40 7z"/>
</g>
</svg>
